Coordinates
version=1
nRows=14
nColumns=36
inDegrees=yes

Units are S.I. units (second, meters, Newtons, ...)
If the header above contains a line with 'inDegrees', this indicates whether rotational values are in degrees (yes) or radians (no).

endheader
time	pelvis_tilt	pelvis_list	pelvis_rotation	pelvis_tx	pelvis_ty	pelvis_tz	hip_flexion_r	hip_adduction_r	hip_rotation_r	knee_angle_r	knee_angle_r_beta	ankle_angle_r	subtalar_angle_r	mtp_angle_r	hip_flexion_l	hip_adduction_l	hip_rotation_l	knee_angle_l	knee_angle_l_beta	ankle_angle_l	subtalar_angle_l	mtp_angle_l	lumbar_extension	lumbar_bending	lumbar_rotation	arm_flex_r	arm_add_r	arm_rot_r	elbow_flex_r	pro_sup_r	arm_flex_l	arm_add_l	arm_rot_l	elbow_flex_l	pro_sup_l
      0.00000000	      4.63522276	     -4.22931426	      3.08612568	      0.89031963	      0.83366563	      0.74197090	     -3.17481487	      8.29493969	      3.59764123	      5.16877100	      0.09021207	      3.48339709	    -13.03641983	     -7.13030793	     13.62798894	     -5.50588182	      1.80816992	     60.69610768	      1.05934692	     -1.01173348	    -15.32067549	     -7.13030793	    -10.93279554	      5.16905888	     -1.42580425	      0.56346418	    -11.78016115	     -9.22018934	     19.05564661	     89.44951255	      9.20221868	    -10.29941270	      5.62534826	     16.51238354	     86.98253968
      0.01666670	      3.63040742	     -4.18735156	      3.13452867	      0.88608355	      0.83074884	      0.74133354	     -3.58907007	      8.31767851	      3.00397856	      4.91161586	      0.08572387	      5.02524071	    -10.33346769	     -7.18126923	     17.78555865	     -5.38894399	      1.44444260	     59.28846668	      1.03477895	      1.47953167	    -13.01190619	     -7.18126923	     -9.78175736	      4.82034797	     -0.74497212	      1.47589046	    -11.92762233	     -8.97039072	     18.76731614	     88.42700079	      9.13048339	     -9.95480264	      6.09650176	     14.94793965	     86.38380360
      0.03333330	      3.38253176	     -3.80755219	      3.35474047	      0.87851276	      0.83002240	      0.73834846	     -4.44769172	      7.81902975	      2.66714936	      5.47834206	      0.09561511	      6.42133538	     -8.63644959	     -7.19772657	     20.13452044	     -4.44358443	      1.37901982	     55.93368139	      0.97622690	      3.11290529	    -11.63123168	     -7.19772657	     -9.78455267	      4.53874432	     -0.43296249	      3.23244238	    -12.45647543	     -8.86936886	     19.42882359	     88.35492669	      9.02131554	     -9.87363764	      6.19287504	     13.95034049	     86.39245338
      0.05000000	      2.06207495	     -3.51935175	      3.33684925	      0.87020024	      0.82753217	      0.73441383	     -3.84056776	      7.34794418	      2.45482012	      6.23677151	      0.10885220	      7.65976867	     -8.02423984	     -7.23307633	     23.32317759	     -3.50469132	      0.77408071	     51.70640748	      0.90244705	      4.04116709	    -10.86405910	     -7.23307633	     -8.71290197	      4.35017821	      0.39761790	      5.11080577	    -13.37165144	     -7.65044857	     19.61193538	     88.93142765	      8.87383941	     -9.50574402	      6.43182756	     12.30976498	     87.22694935
      0.06666670	      1.06650556	     -3.15872852	      2.97317333	      0.86450320	      0.82480033	      0.73095473	     -3.84139777	      6.92842484	      2.45751478	      6.68638817	      0.11669949	      8.91528430	     -7.53125354	     -7.22413412	     25.83104843	     -2.43307950	      0.41953283	     46.88652115	      0.81832417	      4.60604625	    -10.85345330	     -7.22413412	     -8.23774948	      4.14006046	      1.26557732	      7.18580049	    -14.23374948	     -7.00655212	     20.57229798	     86.58288289	      8.07318416	     -9.29884166	      6.12855652	     11.67221553	     85.17183629
      0.08333330	     -0.09310983	     -2.88035007	      2.34437796	      0.86418866	      0.82220017	      0.72807809	     -4.34806043	      6.68730861	      2.93241291	      6.32359820	      0.11036761	      9.50285210	     -6.93176519	     -7.22722091	     28.11704950	     -1.60300372	      0.26517638	     41.20856857	      0.71922520	      4.99432231	    -10.18372032	     -7.22722091	     -7.22906056	      3.96302583	      2.58101257	      8.96585728	    -15.18172125	     -6.56008403	     21.46582254	     86.70737075	      6.96731306	     -9.20882182	      6.14264673	     10.91461632	     85.43110126
      0.10000000	     -0.49661125	     -2.62945712	      1.90867118	      0.86638918	      0.82083914	      0.72517631	     -6.19298448	      6.48701315	      2.92354910	      5.49873318	      0.09597100	      9.82013347	     -5.11125489	     -7.24007742	     28.96161000	     -0.78922814	      0.76037265	     34.26176348	      0.59798058	      4.85270587	     -9.48772023	     -7.24007742	     -7.04660942	      3.88696556	      3.73250740	     10.59439788	    -16.65709432	     -4.03967046	     23.02523070	     87.79071498	      6.09158546	     -9.12477794	      6.00784016	      9.81106693	     87.36442462
      0.11666670	     -1.20114712	     -2.50011652	      1.69385273	      0.86770142	      0.81839825	      0.72271443	     -7.89410355	      6.40586405	      3.28311022	      4.36529899	      0.07618884	      9.38100136	     -4.15395270	     -7.25560159	     29.69341365	     -0.20528774	      1.61185611	     26.51177573	      0.46271778	      4.51391498	     -7.82256630	     -7.25560159	     -6.33486534	      3.97893151	      4.14973661	     12.36904264	    -17.97257508	     -1.30774877	     24.66058200	     88.09846615	      4.61766249	     -9.21049461	      4.96938762	      9.50769466	     90.55443626
      0.13333330	     -2.07846447	     -2.40143390	      1.60947785	      0.86707077	      0.81422582	      0.71986369	     -9.23842255	      6.27716345	      3.63783603	      3.24155518	      0.05657581	      9.58454587	     -3.07989062	     -7.24757775	     30.35603812	      0.16472609	      2.63406364	     18.56201298	      0.32396824	      4.64351244	     -5.08166128	     -7.24757775	     -5.43800287	      4.05011639	      4.47916639	     13.81039232	    -18.80223820	     -1.03949116	     26.33902831	     87.21871995	      3.44078302	     -9.28705392	      4.61410976	      9.05087461	     90.17525968
      0.15000000	     -3.10683649	     -2.32820878	      1.43199907	      0.86624293	      0.80741520	      0.71665624	    -10.16932880	      6.06411806	      4.00972142	      2.26937118	      0.03960800	     10.73232366	     -2.12540272	     -7.23181415	     31.05808716	      0.26012070	      3.81439670	     11.07698953	      0.19332994	      5.13407127	     -2.30276205	     -7.23181415	     -4.36320364	      4.16166413	      4.98954405	     14.61878005	    -19.77153118	     -0.62735055	     28.51802340	     86.17729990	      2.41199252	     -9.30110893	      4.30605826	      8.75917132	     89.48537439
      0.16666670	     -3.54684963	     -2.41185933	      1.04194873	      0.86600621	      0.79948315	      0.71471952	    -11.49581945	      5.96667306	      4.41087812	      1.58408662	      0.02764753	     12.83741001	     -1.13335951	     -7.22508476	     31.33793374	     -0.08414545	      5.15849131	      5.27886601	      0.09213359	      6.16344634	     -0.14060329	     -7.22508476	     -4.13432441	      4.36644225	      5.38677948	     15.57898237	    -20.65245913	      0.07912177	     30.92260943	     84.60230217	      1.68140759	     -9.22688849	      3.72476865	      8.20831322	     88.28793032
      0.18333330	     -4.01043505	     -2.46564071	      0.75984970	      0.86738219	      0.79115235	      0.71441287	    -12.59696778	      5.87118773	      4.53750217	      1.34227158	      0.02342706	     14.82918266	     -0.37349619	     -7.36119595	     32.03070663	     -0.38970364	      6.27262819	      1.92697037	      0.03363198	      7.32912733	      1.44260384	     -7.36119595	     -3.66835859	      4.49945505	      5.26644755	     16.63600710	    -21.44934427	      1.99710007	     32.78959039	     84.33348032	      0.63913569	     -9.03232733	     -3.09193008	      8.17601804	     94.90203887
      0.20000000	     -4.44056317	     -2.35545711	      0.66271917	      0.86996239	      0.78433649	      0.71441864	    -13.66873053	      5.63560224	      4.83168484	      1.38677918	      0.02420386	     16.38684540	     -0.13538991	     -7.36647786	     33.00930991	     -0.34840061	      7.16636972	      0.97143497	      0.01695474	      8.33570733	      2.00511663	     -7.36647786	     -3.04804963	      4.43760099	      5.26259719	     17.17908849	    -21.72778476	      1.93330068	     34.22595120	     84.35910392	     -0.04780832	     -9.13536848	     -3.43249667	      7.60097957	     94.94564451
      0.21666670	     -4.60185915	     -1.78268724	      0.68195427	      0.87272942	      0.78012775	      0.71417682	    -14.97331449	      4.92819465	      4.96859717	      1.76744781	      0.03084778	     17.49624850	     -0.30207523	     -7.36838282	     33.37588515	      0.23991213	      7.53704128	      1.04057390	      0.01816144	      8.46884571	      1.86719866	     -7.36838282	     -2.54366116	      3.68074438	      5.44196769	     17.51239124	    -21.81844011	      1.81923245	     34.85023843	     84.34498680	     -0.57583921	     -9.45416850	     -3.66049917	      7.27181244	     94.88068152
